<svg xmlns="http://www.w3.org/2000/svg" xmlns:xlink="http://www.w3.org/1999/xlink" version="1.1" id="Layer_1" x="0px" y="0px" width="1200px" height="330.709px" viewBox="0 0 1200 330.709" enable-background="new 0 0 1200 330.709" xml:space="preserve">
<g>
	<g>
		<path fill="#98252B" d="M862.229 177.471l-17.088-11.162v-22.285L815.31 124.53c-2.553-1.67-4.417-2.105-5.581-1.305 c-1.163 0.805-1.745 2.908-1.745 6.317v47.408c0 3.4 0.6 6.3 1.79 8.667c1.196 2.37 3.04 4.37 5.54 6.003l46.918 30.32 v-44.445V177.471z"/>
		<path fill="#98252B" d="M862.229 244.76l-52.623-34.388c-6.475-4.233-11.592-9.544-15.341-15.946 c-3.749-6.402-5.629-12.982-5.629-19.743v-67.994c0-6.76 1.88-10.888 5.629-12.389c3.749-1.495 8.866-0.126 15.34 4.1 l52.623 34.393V72.683v-0.014L749.269 0v3.654v109.672v56.501v56.501l112.96 72.932v-54.471V244.76z"/>
		<path fill="#F4CD00" d="M862.229 221.944l-46.918-30.323c-2.499-1.634-4.342-3.637-5.538-6.003 c-1.19-2.367-1.788-5.263-1.788-8.667v-47.408c0-3.41 0.582-5.512 1.745-6.317c1.164-0.8 3.027-0.365 5.58 1.305l29.831 19.49 v22.285l17.088 11.162v-44.648v-0.028l-52.623-34.393c-6.475-4.228-11.592-5.596-15.341-4.101 c-3.749 1.501-5.629 5.629-5.629 12.389v67.994c0 6.76 1.88 13.34 5.63 19.743c3.749 6.4 8.87 11.71 15.34 15.95 l52.623 34.388v-22.788V221.944z"/>
		<path fill="#C3002F" d="M862.229 221.944l46.919-30.323c2.499-1.634 4.341-3.637 5.537-6.003c1.19-2.367 1.788-5.263 1.788-8.667 v-47.408c0-3.41-0.582-5.512-1.745-6.317c-1.163-0.8-3.027-0.365-5.58 1.305l-29.831 19.494v22.285l-17.088 11.162v0.028V221.944z "/>
		<path fill="#C3002F" d="M862.229 72.669v0.014v60.112l52.623-34.393c6.475-4.228 11.592-5.596 15.341-4.101 c3.749 1.5 5.63 5.63 5.63 12.389v67.994c0 6.76-1.88 13.341-5.629 19.743c-3.749 6.402-8.866 11.713-15.341 15.95 l-52.623 34.388v0.028v54.471l112.96-72.932v-56.501v-56.501V3.654V0L862.229 72.669z"/>
		<path fill="#FFFFFF" d="M862.229 177.471l17.088-11.162v-22.285l29.831-19.494c2.553-1.67 4.417-2.105 5.58-1.305 c1.164 0.81 1.75 2.91 1.75 6.317v47.408c0 3.405-0.598 6.301-1.788 8.667c-1.196 2.367-3.038 4.37-5.537 6 l-46.919 30.323v0.028v22.788l52.623-34.388c6.475-4.233 11.592-9.544 15.341-15.946c3.749-6.402 5.629-12.982 5.629-19.743 v-67.994c0-6.76-1.88-10.888-5.629-12.389c-3.749-1.495-8.866-0.126-15.341 4.101l-52.623 34.393v0.028V177.471z"/>
	</g>
	<path fill="#98252B" d="M1077.923 198.941c-3.737-1.945-6.286-3.892-7.649-5.836c-1.362-1.947-2.043-4.217-2.043-6.813 c0-3.892 1.665-7.103 4.996-9.635c3.33-2.529 7.477-3.796 12.439-3.796c4.477 0 8.18 1.01 11.11 3.04 c2.927 2.02 4.39 4.65 4.39 7.862c0 4.801-3.412 9.186-10.237 13.157c5.189 2.52 8.63 4.91 10.31 7.18 c1.687 2.27 2.53 4.98 2.53 8.116c0 4.333-1.945 7.919-5.834 10.761c-3.891 2.842-8.534 4.264-13.932 4.26 c-5.426 0-9.858-1.213-13.297-3.64c-3.441-2.425-5.16-5.649-5.16-9.672C1065.545 207.88 1069.67 202.89 1077.92 198.941z M1081.345 200.382c-5.083 3.037-7.626 7.239-7.626 12.612c0 3.4 0.97 6.1 2.92 8.114s4.62 3.02 8.02 3.02 c3.099 0 5.698-0.9 7.793-2.704c2.096-1.804 3.144-4.146 3.144-7.027c0-2.751-0.954-5.119-2.864-7.103 C1090.82 205.3 1087.03 203 1081.35 200.382z M1087.424 195.438c3.708-2.985 5.562-6.487 5.562-10.51 c0-2.881-0.746-5.104-2.238-6.674s-3.464-2.356-5.913-2.356c-2.472 0-4.496 0.715-6.069 2.142s-2.361 3.374-2.361 5.84 c0 2.46 0.85 4.51 2.55 6.15C1080.661 191.66 1083.48 193.47 1087.42 195.438z"/>
	<path fill="#98252B" d="M1196.935 174.769c-8.094 1.609-14.157 4.432-18.191 8.466c-4.034 4.035-6.64 8.999-7.819 14.89 l0.079 0.039c3.168-3.426 7.282-5.139 12.337-5.139c4.688 0 8.64 1.56 11.85 4.671c3.209 3.11 4.81 7.07 4.81 11.87 c0 5.085-1.756 9.302-5.266 12.649c-3.51 3.35-7.87 5.023-13.083 5.023c-5.763 0-10.426-2.063-13.987-6.189 c-3.563-4.126-5.344-9.447-5.344-15.959c0-7.993 2.776-15.064 8.33-21.214c5.553-6.152 14.131-10.108 25.735-11.873 L1196.935 174.769z M1191.826 211.826c0-4.542-1.054-8.232-3.16-11.074c-2.105-2.842-4.796-4.264-8.072-4.264 c-2.99 0-5.42 1.06-7.292 3.175c-1.872 2.115-2.807 4.989-2.807 8.622c0 4.44 1.09 8.24 3.28 11.4 c2.184 3.17 4.96 4.75 8.35 4.75c2.937 0 5.289-1.213 7.058-3.64C1190.941 218.37 1191.83 215.38 1191.83 211.826z"/>
	<path fill="#98252B" d="M1041.896 221.917c-0.701-0.259-1.065-0.922-1.091-1.991v-45.27l-0.46-0.385 c-4.784 1.216-9.179 2.329-13.892 3.359v2.758l6.917 0.959c0.103 5.71 0.16 12.27 0.16 19.676v9.176 c0 3.648-0.026 6.963-0.078 9.948c-0.027 0.922-0.377 1.511-1.051 1.77l-5.945 2.122v2.349l21.632 0.003v-2.209L1041.896 221.917z"/>
	<path fill="#98252B" d="M1153.617 173.879h-35.126v14.313h1.886l2.257-7.939h24.873l-22.358 46.136h8.034 c0.626-2.024 1.336-4.181 2.16-6.525c0.921-2.62 1.926-5.366 3.017-8.237c1.089-2.874 2.258-5.827 3.504-8.861 c1.245-3.034 2.522-6.095 3.834-9.181c1.31-3.088 2.646-6.142 4.009-9.161c1.362-3.019 2.717-5.96 4.068-8.821L1153.617 173.879z"/>
	<g>
		<path d="M276.513 303.806v-0.146c0-14.875 11.136-27.055 26.978-27.055c9.642 0 15.47 3.36 20.48 8.145l-5.903 6.8 c-4.187-3.888-8.668-6.502-14.647-6.502c-9.94 0-17.263 8.221-17.263 18.459v0.152c0 10.24 7.25 18.53 17.26 18.53 c6.426 0 10.536-2.537 15.021-6.724l5.902 5.982c-5.455 5.677-11.434 9.261-21.225 9.26 C287.874 330.71 276.51 318.83 276.51 303.806z"/>
		<path d="M339.993 303.806v-0.146c0-14.723 11.361-27.055 27.429-27.055s27.277 12.18 27.28 26.902v0.152 c0 14.717-11.361 27.048-27.429 27.048C351.202 330.71 339.99 318.53 339.99 303.806z M385.056 303.806v-0.146 c0-10.168-7.396-18.611-17.787-18.611c-10.384 0-17.635 8.297-17.635 18.459v0.152c0 10.16 7.4 18.53 17.79 18.53 C377.806 322.19 385.06 313.97 385.06 303.806z"/>
		<path d="M415.381 277.5h9.192v43.947h27.505v8.367h-36.696V277.5z"/>
		<path d="M471.204 277.5h9.192v43.947H507.9v8.367h-36.696V277.5z"/>
		<path d="M528.453 277.5h38.79v8.221h-29.598v13.6h23.109v8.221h-23.109v14.051h29.972v8.221h-39.164V277.5z"/>
		<path d="M587.015 303.806v-0.146c0-14.653 11.209-27.055 26.978-27.055c9.115 0 14.72 2.54 20.1 7.098l-5.83 6.95 c-4.034-3.438-7.993-5.608-14.647-5.608c-9.642 0-16.962 8.443-16.962 18.459v0.152c0 10.76 7.1 18.68 17.79 18.68 c4.929 0 9.414-1.573 12.63-3.965v-9.788h-13.378v-7.993h22.272v21.967c-5.157 4.409-12.554 8.145-21.821 8.14 C597.779 330.71 587.01 319.05 587.01 303.806z"/>
		<path d="M659.351 277.5h38.79v8.221h-29.598v13.6h23.109v8.221h-23.109v14.051h29.972v8.221h-39.164V277.5z"/>
	</g>
	<g>
		<path d="M134.272 108.379h-9.306l-13.187-32.452c-6.082-1.924-12.664-2.893-19.748-2.893c-17.013 0-30.179 6.372-39.489 19.11 c-9.317 12.744-13.976 29.427-13.976 50.058c0 22.02 5.49 39.57 16.46 52.654c10.964 13.09 26.19 19.64 45.67 19.64 c10.852 0 22.285-2.194 34.297-6.583l1.496 6.583c-15.392 10.47-32.795 15.702-52.193 15.7 c-25.171 0-45.518-7.584-61.029-22.753C7.756 192.29 0 172.31 0 147.519c0-26.403 8.507-47.304 25.52-62.703 s39.219-23.095 66.63-23.095c13.547 0 27.41 1.58 41.57 4.738l0.55 1.153V108.379z"/>
		<path d="M218.018 216.923c-9.772 8.237-20.13 12.355-31.062 12.355c-10.701 0-19.511-2.675-26.443-8.026 c-6.925-5.35-10.391-12.875-10.391-22.575c0-12.091 5.601-20.941 16.802-26.561c11.202-5.621 27.998-8.428 50.401-8.428 l0.119-8.665c0.072-8.237-1.904-14.299-5.95-18.186c-4.039-3.888-10.332-5.831-18.878-5.831c-7.927 0-17.435 1.733-28.525 5.2 l-3.229-9.238c16.394-7.466 32.175-11.202 47.343-11.202c13.857 0 24.23 3.1 31.12 9.29 c6.886 6.2 10.29 15.11 10.22 26.732l-0.58 48.042c-0.152 3.927-0.079 6.32 0.23 8.709c0.31 2.38 1.39 5.21 3.73 7.33 c3.316 3.01 7.5 3.72 12.9 4.803v5.635c0 0-20.403 0-28.071 0C230.092 226.31 220.86 222.61 218.02 216.923z M217.326 174.653c-12.085 0-20.71 1.542-25.863 4.619c-5.159 3.084-7.736 8.355-7.736 15.821c0 6.78 1.82 11.61 5.48 14.5 c3.657 2.89 7.99 4.33 12.99 4.329c5.693 0 10.661-1.463 14.892-4.388L217.326 174.653z"/>
		<polygon points="494.26,82.82 494.26,108.16 527.05,87.06 527.05,61.72"/>
		<path d="M494.098 133.339v64.871c0 7.09-0.079 12.131-0.23 15.129c-0.158 1.851-1.12 3.005-2.886 3.466l-14.29 4.039v5.548h67.926 v-5.548l-14.608-4.039c-1.772-0.54-2.735-1.845-2.886-3.927c-0.151-3.617-0.23-10.003-0.23-19.168v-81.472L494.098 133.339z"/>
		<path d="M327.122 213.339c-0.158-2.998-0.231-8.039-0.231-15.129V54.69V40.508l-32.794 21.101v132.1 c0 9.165-0.079 15.551-0.231 19.168c-0.158 2.083-1.12 3.387-2.893 3.927l-14.605 4.039v5.548h68.159v-5.548l-14.519-4.039 C328.235 216.34 327.27 215.19 327.12 213.339z"/>
		<path d="M683.632 216.805c-1.924-0.54-2.925-1.845-3.005-3.927c-0.151-4.619-0.231-11.735-0.231-21.362v-40.53 c0-11.241-3.196-19.919-9.581-26.04c-6.392-6.121-15.208-9.179-26.449-9.179c-12.697 0-25.56 4.309-38.567 12.928v-1.714v-8.559 h-18.306h-31.838v5.548l0.489 0.135l14.086 3.904c1.584 0.43 2.44 1.49 2.6 3.141c0.012 0.11 0.05 0.2 0.05 0.33 c0.079 4.9 0.12 9.62 0.12 14.138v53.526c0 4.54-0.039 9.278-0.119 14.2c-0.072 1.852-0.962 3.005-2.655 3.466l-14.575 4.04 v5.548h65.157v-5.548l-12.127-3.69c-1.694-0.468-2.576-1.733-2.655-3.815c-0.152-8.006-0.231-16.816-0.231-26.442V137.24 c6.774-3.69 13.356-5.542 19.748-5.542c7.314 0 12.82 2.06 16.51 6.181c3.697 4.12 5.54 10.91 5.54 20.38v48.384 c0 3.697-0.04 6.122-0.112 7.275c-0.158 1.772-1.12 2.925-2.893 3.466l-11.314 3.459v5.548h64.492v-5.548L683.632 216.805z"/>
		<path d="M431.734 118.421v5.542l12.296 3.466c-5.924 16.012-11.966 31.753-18.127 47.225c-1.924 4.698-3.848 9.706-5.772 15.02 c-1.852-5.469-3.657-10.47-5.429-15.017c-6.695-17.086-12.513-32.827-17.435-47.225l12.009-3.466v-5.542h-62.357v5.542 l11.544 3.235c2.155 0.77 3.85 2.5 5.09 5.192l37.976 93.999l15.994 0c4.076-10.291 10.086-25.01 18.023-44.171 c8.125-19.59 15.188-36.392 21.191-50.401c1.08-2.385 2.576-3.888 4.507-4.507l12.18-3.347v-5.542H431.734z"/>
	</g>
</g>
</svg>